<?xml version="1.0" standalone="no"?>
<!DOCTYPE svg PUBLIC "-//W3C//DTD SVG 20010904//EN"
 "http://www.w3.org/TR/2001/REC-SVG-20010904/DTD/svg10.dtd">
<svg version="1.0" xmlns="http://www.w3.org/2000/svg"
 width="376.000000pt" height="371.000000pt" viewBox="0 0 376.000000 371.000000"
 preserveAspectRatio="xMidYMid meet">

<g transform="translate(0.000000,371.000000) scale(0.100000,-0.100000)"
fill="#000000" stroke="none">
<path d="M1061 3323 l-21 -18 2 -530 3 -530 45 0 45 0 3 489 c1 275 6 492 11
495 13 8 1494 13 1514 5 16 -6 17 -58 17 -620 l0 -614 50 0 50 0 0 654 0 655
-22 15 c-20 14 -117 16 -849 16 -773 0 -828 -1 -848 -17z"/>
<path d="M1500 3020 c-40 -44 -77 -80 -82 -80 -6 0 -23 14 -38 30 -15 17 -35
30 -43 30 -22 0 -47 -28 -47 -51 0 -26 107 -139 131 -139 25 0 219 217 219
245 0 11 -5 26 -12 33 -27 27 -56 12 -128 -68z"/>
<path d="M1760 2980 c-24 -24 -24 -29 -4 -58 l15 -22 369 0 369 0 15 22 c20
29 20 34 -4 58 -19 19 -33 20 -380 20 -347 0 -361 -1 -380 -20z"/>
<path d="M1579 2691 c-9 -3 -46 -40 -83 -81 -37 -41 -70 -76 -75 -78 -4 -1
-22 11 -39 28 -34 32 -60 38 -80 18 -23 -23 -12 -56 34 -107 52 -58 76 -74 98
-65 8 3 58 54 111 112 73 82 95 112 93 131 -4 28 -36 52 -59 42z"/>
<path d="M1762 2578 c-19 -19 -15 -66 7 -78 13 -6 149 -10 375 -10 343 0 357
1 376 20 24 24 24 29 4 58 l-15 22 -368 0 c-272 0 -370 -3 -379 -12z"/>
<path d="M385 2491 c-49 -23 -99 -75 -113 -120 -8 -23 -12 -298 -12 -936 -1
-814 1 -907 16 -944 20 -51 71 -97 123 -111 27 -7 467 -9 1398 -8 l1358 3 48
28 c67 39 95 87 122 209 12 57 35 155 49 218 15 63 45 194 67 290 22 96 49
213 60 260 68 284 79 344 69 379 -24 87 -79 134 -164 138 -114 7 -103 -11
-108 185 -3 159 -6 177 -28 223 -16 32 -41 61 -68 80 -42 29 -47 30 -177 33
l-133 4 -4 -39 c-9 -73 -9 -73 119 -73 63 0 123 -5 134 -10 41 -22 49 -60 49
-229 0 -158 0 -161 -22 -166 -13 -3 -341 -4 -730 -3 l-708 3 -28 30 c-16 17
-39 55 -51 86 -12 31 -38 71 -57 90 l-35 34 -410 3 c-459 3 -456 3 -508 -68
-27 -38 -43 -96 -121 -450 -21 -96 -47 -211 -58 -255 -11 -44 -29 -127 -42
-185 -33 -157 -40 -181 -50 -175 -6 4 -10 255 -10 656 0 708 -1 698 56 719 14
6 135 10 269 10 263 0 255 -2 255 55 0 57 9 55 -264 55 -223 0 -255 -2 -291
-19z m3060 -716 c14 -13 25 -34 25 -47 0 -33 -22 -135 -116 -524 -19 -78 -38
-164 -44 -190 -5 -27 -23 -110 -41 -184 -17 -74 -37 -164 -45 -200 -8 -36 -19
-78 -26 -93 -24 -60 58 -57 -1417 -57 -742 0 -1357 3 -1366 6 -9 4 -21 18 -26
32 -10 26 -1 74 68 362 8 36 25 112 38 170 77 351 104 458 124 492 32 57 37
58 536 58 279 0 463 4 475 10 10 5 39 38 64 74 25 35 59 75 76 90 l32 26 809
0 810 0 24 -25z"/>
<path d="M1831 1693 c-11 -10 -42 -49 -68 -88 -76 -111 -42 -105 -578 -105
-253 0 -466 -4 -473 -8 -7 -5 -19 -37 -28 -73 -8 -35 -21 -91 -29 -124 -34
-139 -52 -219 -89 -390 -14 -66 -37 -167 -50 -225 -13 -58 -22 -108 -19 -112
2 -5 584 -8 1293 -8 l1290 0 16 26 c10 14 35 100 56 192 125 540 151 652 173
757 9 44 21 93 26 109 5 16 9 37 9 47 0 18 -27 19 -754 19 -703 0 -755 -1
-775 -17z"/>
<path d="M1762 2168 c-7 -7 -12 -21 -12 -33 0 -44 5 -45 392 -45 l368 0 15 24
c13 19 14 29 5 45 -11 21 -17 21 -383 21 -277 0 -376 -3 -385 -12z"/>
</g>
</svg>
