<?xml version="1.0" standalone="no"?>
<!DOCTYPE svg PUBLIC "-//W3C//DTD SVG 20010904//EN"
 "http://www.w3.org/TR/2001/REC-SVG-20010904/DTD/svg10.dtd">
<svg version="1.0" xmlns="http://www.w3.org/2000/svg"
 width="316.000000pt" height="316.000000pt" viewBox="0 0 316.000000 316.000000"
 preserveAspectRatio="xMidYMid meet">

<g transform="translate(0.000000,316.000000) scale(0.100000,-0.100000)"
fill="currentColor" stroke="none">
<path d="M1321 2793 c-19 -105 -32 -143 -50 -143 -9 0 -52 -16 -96 -35 -44
-19 -84 -35 -90 -35 -5 0 -48 25 -93 55 -46 30 -87 55 -91 55 -3 0 -48 -42
-100 -94 l-93 -94 62 -92 62 -92 -25 -52 c-13 -28 -31 -68 -38 -89 -17 -47
-24 -51 -124 -66 -124 -19 -116 -13 -113 -89 l3 -67 221 -3 221 -2 12 72 c26
157 131 296 277 365 79 38 80 38 209 38 129 0 130 0 208 -37 151 -72 252 -205
278 -365 l12 -73 221 2 221 3 3 67 c3 76 11 70 -113 89 -87 13 -115 23 -115
42 0 7 -16 47 -35 91 l-34 78 61 90 61 90 -94 94 c-51 52 -97 94 -101 94 -4 0
-46 -27 -94 -59 l-87 -60 -66 33 c-36 19 -81 37 -99 41 -39 8 -46 23 -69 138
l-16 77 -142 0 -142 0 -12 -67z"/>
<path d="M195 2403 c-52 -27 -85 -66 -100 -117 -13 -42 -15 -168 -15 -810 0
-419 5 -790 10 -825 10 -71 29 -104 80 -138 l33 -23 1256 0 1256 1 38 23 c74
45 83 70 158 401 45 203 76 338 99 435 72 305 82 364 71 401 -25 82 -94 128
-193 129 l-58 0 0 155 c0 199 -15 242 -102 286 -33 17 -61 19 -256 19 -249 0
-255 -2 -225 -64 l17 -36 204 0 204 0 29 -29 29 -29 0 -151 0 -151 -1107 0
-1108 0 -50 -24 c-93 -44 -110 -76 -160 -301 -29 -129 -73 -320 -96 -415 -17
-75 -17 -72 -18 525 -1 577 0 601 19 625 l19 25 240 3 c133 2 241 5 241 8 0 3
-14 26 -32 50 l-31 44 -211 0 c-172 -1 -216 -4 -241 -17z m2767 -650 c28 -25
24 -61 -37 -318 -13 -55 -37 -163 -55 -240 -32 -142 -49 -215 -95 -407 -14
-59 -25 -115 -25 -124 0 -8 -13 -29 -29 -45 l-29 -29 -1224 0 c-1012 0 -1227
2 -1243 14 -24 17 -22 48 8 177 14 57 37 158 52 224 42 189 75 330 106 462 16
67 29 128 29 136 0 34 34 122 55 143 l24 24 1222 0 c1123 0 1224 -1 1241 -17z"/>
<path d="M525 1678 c-2 -7 -11 -44 -19 -83 -9 -38 -27 -119 -41 -180 -34 -146
-68 -294 -99 -435 -15 -63 -37 -160 -50 -215 -13 -55 -21 -103 -19 -108 5 -9
2339 0 2354 8 11 7 28 70 64 230 15 66 39 174 55 240 15 66 40 174 55 240 15
66 36 153 46 194 11 41 19 85 19 98 l0 23 -270 0 -270 0 0 -35 c0 -28 -4 -35
-22 -39 -13 -2 -58 -13 -101 -23 l-78 -18 -34 -80 c-19 -44 -35 -83 -35 -87 0
-3 25 -43 56 -87 l55 -81 -83 -85 c-45 -47 -87 -85 -93 -85 -10 0 -87 49 -152
96 -21 15 -25 15 -55 -4 -18 -11 -63 -32 -99 -47 l-65 -26 -18 -94 -18 -95
-133 0 -132 0 -13 77 c-18 112 -20 115 -91 142 -35 13 -78 32 -95 42 l-30 18
-83 -54 c-45 -30 -87 -55 -93 -55 -5 0 -48 39 -94 86 l-83 86 46 67 c26 36 53
74 61 83 12 15 12 21 -6 50 -10 18 -27 56 -37 84 l-18 52 -81 16 c-45 9 -91
19 -103 22 -19 3 -23 11 -23 39 0 33 -2 35 -35 35 -20 0 -38 -6 -40 -12z"/>
<path d="M1060 1674 c0 -40 35 -130 73 -187 80 -119 196 -180 342 -180 137 0
253 57 336 166 36 49 79 154 79 195 0 20 -5 22 -49 22 -48 0 -50 -1 -56 -32
-12 -53 -50 -120 -92 -160 -174 -168 -459 -86 -522 150 l-12 42 -49 0 c-39 0
-50 -3 -50 -16z"/>
<path d="M1388 2319 c-151 -35 -283 -178 -290 -315 l-3 -49 46 -3 47 -3 7 38
c16 87 79 169 160 209 48 23 64 26 133 23 67 -4 85 -9 132 -37 66 -40 107 -94
129 -170 l17 -57 47 -3 c45 -3 47 -2 47 23 0 79 -52 188 -121 251 -91 84 -232
121 -351 93z"/>
</g>
</svg>
