<?xml version="1.0" standalone="no"?>
<!DOCTYPE svg PUBLIC "-//W3C//DTD SVG 20010904//EN"
 "http://www.w3.org/TR/2001/REC-SVG-20010904/DTD/svg10.dtd">
<svg version="1.0" xmlns="http://www.w3.org/2000/svg"
 width="500.000000pt" height="500.000000pt" viewBox="0 0 500.000000 500.000000"
 preserveAspectRatio="xMidYMid meet">

<g transform="translate(0.000000,500.000000) scale(0.100000,-0.100000)"
fill="currentColor" stroke="none">
<path d="M1652 4244 l-22 -15 0 -535 0 -534 50 0 50 0 0 494 c0 320 4 496 10
498 5 2 352 2 770 0 l760 -2 0 -615 0 -615 50 0 50 0 0 654 0 655 -22 15 c-20
14 -117 16 -848 16 -731 0 -828 -2 -848 -16z"/>
<path d="M2090 3940 c-40 -44 -78 -80 -85 -80 -7 0 -20 11 -29 24 -29 45 -87
42 -99 -4 -7 -28 98 -149 130 -150 14 0 38 18 65 47 24 26 52 57 64 69 85 89
109 135 82 162 -27 27 -56 12 -128 -68z"/>
<path d="M2344 3895 c-15 -23 -15 -27 0 -50 l16 -25 369 0 c359 0 368 0 387
21 17 19 17 23 3 47 l-15 27 -372 3 -371 2 -17 -25z"/>
<path d="M2108 3555 c-34 -36 -67 -74 -75 -85 -19 -27 -28 -25 -60 10 -14 17
-36 30 -49 30 -27 0 -55 -35 -47 -59 9 -27 116 -131 134 -131 26 0 219 217
219 245 0 27 -24 55 -46 55 -9 0 -43 -29 -76 -65z"/>
<path d="M2345 3486 c-20 -30 -7 -63 28 -71 12 -3 182 -4 377 -3 l354 3 15 27
c14 24 14 28 -3 47 -19 21 -28 21 -387 21 l-369 0 -15 -24z"/>
<path d="M975 3411 c-48 -22 -99 -74 -115 -116 -8 -22 -11 -286 -12 -940 0
-1017 -4 -952 72 -1018 23 -19 55 -37 72 -41 58 -11 2710 -7 2753 5 95 26 137
82 169 225 13 60 52 228 86 374 34 146 68 294 75 330 8 36 25 110 39 165 50
200 58 251 44 297 -15 52 -77 114 -127 128 -20 5 -60 10 -88 10 l-53 0 0 153
c0 175 -13 237 -61 291 -47 54 -94 67 -234 64 l-120 -3 0 -50 0 -50 126 -5
c81 -3 132 -10 141 -18 32 -26 39 -66 36 -225 l-3 -158 -725 1 c-674 0 -727 1
-748 18 -13 9 -43 55 -65 102 -65 131 -39 125 -512 125 -362 0 -393 -1 -428
-19 -81 -40 -92 -69 -176 -459 -28 -128 -55 -245 -60 -262 -5 -16 -24 -97 -42
-180 -43 -204 -48 -225 -59 -225 -6 0 -10 243 -10 655 0 715 -1 704 56 725 14
6 138 10 275 10 l249 0 0 55 0 55 -257 0 c-230 0 -262 -2 -298 -19z m3060
-716 c36 -35 36 -29 -36 -340 -12 -49 -32 -133 -45 -186 -22 -91 -110 -477
-140 -619 -19 -86 -38 -124 -69 -138 -20 -9 -361 -12 -1375 -12 -741 0 -1356
3 -1365 6 -30 12 -36 49 -19 122 8 37 26 117 39 177 13 61 42 189 65 285 22
96 49 216 60 265 34 159 48 197 80 229 l30 31 479 5 c399 4 481 7 496 20 9 8
34 40 56 71 21 31 52 68 69 83 l32 26 809 0 810 0 24 -25z"/>
<path d="M2421 2613 c-11 -10 -42 -49 -68 -88 -76 -111 -41 -105 -585 -105
-435 0 -468 -1 -477 -17 -5 -10 -18 -61 -30 -113 -11 -52 -30 -133 -41 -180
-11 -47 -35 -155 -54 -240 -19 -85 -46 -206 -60 -269 -14 -63 -26 -116 -26
-118 0 -1 584 -3 1299 -3 l1299 0 16 35 c16 32 32 97 71 280 8 39 27 117 41
175 15 58 37 155 50 215 23 112 58 267 76 340 5 22 12 55 15 73 l5 32 -755 0
c-704 0 -756 -1 -776 -17z"/>
<path d="M2681 3100 c-333 -5 -334 -5 -342 -27 -6 -16 -3 -29 11 -45 l18 -23
348 -3 c360 -3 397 1 409 38 13 40 -26 73 -83 68 -15 -2 -177 -5 -361 -8z"/>
</g>
</svg>
